<?xml version="1.0" encoding="UTF-8"?>
<svg xmlns="http://www.w3.org/2000/svg" version="1.1" viewBox="0 0 760 760">
  <defs>
    
  </defs>
  <rect fill="#00AE42" width="760" height="760" rx="48" ry="48"></rect>
  <g>
    <g>
      <path fill="#0B0F0D" d="M220.18,307.3c-13.81,0-26.69-8.74-31.29-22.57-7.51-22.52-15.44-45.49-23.11-67.72-7.72-22.37-15.71-45.51-23.32-68.35-5.76-17.29,3.58-35.97,20.86-41.73,17.29-5.76,35.97,3.58,41.73,20.86,7.5,22.5,15.43,45.47,23.1,67.68,7.73,22.39,15.72,45.53,23.34,68.38,5.76,17.29-3.58,35.97-20.87,41.73-3.46,1.15-6.98,1.7-10.44,1.7Z"></path>
      <path fill="#0B0F0D" d="M369.19,280.3c-17.88,0-32.57-14.29-32.97-32.26-1.1-49.36-1.1-96.83,0-145.1.41-18.22,15.52-32.65,33.73-32.23,18.22.41,32.65,15.52,32.23,33.73-1.08,47.28-1.08,93.77,0,142.14.4,18.22-14.03,33.31-32.25,33.72-.25,0-.5,0-.75,0Z"></path>
      <path fill="#0B0F0D" d="M518.2,307.3c-4.96,0-9.99-1.12-14.73-3.49-16.3-8.15-22.9-27.97-14.75-44.26,24.22-48.44,50.92-93.63,71.48-127.59,9.43-15.59,29.72-20.58,45.31-11.14,15.59,9.43,20.58,29.72,11.14,45.31-19.91,32.9-45.74,76.61-68.91,122.94-5.78,11.56-17.43,18.24-29.53,18.24Z"></path>
      <path fill="#0B0F0D" d="M370.65,689.31c-60.84,0-118.24-13.99-168.29-41.29-65.16-35.54-117.54-93.56-151.48-167.77-4.21-9.21-3.96-19.85.68-28.85,37.06-71.85,96.44-126.86,171.7-159.09,70.79-30.32,150.87-38.81,231.59-24.57.05,0,.1.02.14.03,64.35,11.65,122.29,36.58,167.56,72.11,43.39,34.05,73.85,76.33,88.09,122.29,2.01,6.48,1.97,13.42-.11,19.87-35.22,109.44-143.11,185.71-288.61,204.04-17.3,2.16-34.42,3.24-51.27,3.24ZM118.01,467.5c58.39,113.75,165.28,169.4,295.7,153.1,60.87-7.67,114.75-27.08,155.78-56.14,35.08-24.84,60.72-56.7,74.68-92.63-11.45-29.39-32.83-56.89-62.35-80.05-36.83-28.9-84.73-49.33-138.51-59.08-68.03-12-135.13-4.99-194.08,20.26-55.95,23.96-101.03,63.38-131.22,114.55Z"></path>
      <path fill="#0B0F0D" d="M388,626.91c-46.84,0-92.77-6.99-135.98-20.89-77.67-24.98-140.94-71.07-182.96-133.28-6.42-9.51-3.92-22.42,5.59-28.84,9.51-6.42,22.42-3.92,28.84,5.59,36.76,54.42,92.52,94.87,161.25,116.98,64.37,20.7,138.76,24.37,209.48,10.33,81.5-16.3,148.96-59.29,185.05-117.94,6.01-9.77,18.81-12.82,28.58-6.81,9.77,6.01,12.82,18.81,6.81,28.58-42.12,68.44-119.5,118.35-212.31,136.91-31.47,6.25-63.12,9.36-94.35,9.36Z"></path>
    </g>
    <g>
      <circle fill="#0B0F0D" cx="369.2" cy="475.16" r="82.07"></circle>
      <path fill="#0B0F0D" d="M369.2,557.84c-45.59,0-82.68-37.09-82.68-82.68s37.09-82.68,82.68-82.68,82.68,37.09,82.68,82.68-37.09,82.68-82.68,82.68ZM369.2,393.7c-44.92,0-81.46,36.54-81.46,81.46s36.54,81.46,81.46,81.46,81.46-36.54,81.46-81.46-36.54-81.46-81.46-81.46Z"></path>
    </g>
  </g>
</svg>